<svg width="32" height="32" viewBox="0 0 24 24" fill="none" xmlns="http://www.w3.org/2000/svg">
  <defs>
    <linearGradient id="calculatorGradient" x1="0%" y1="0%" x2="100%" y2="100%">
      <stop offset="0%" style="stop-color:#3b82f6"/>
      <stop offset="100%" style="stop-color:#8b5cf6"/>
    </linearGradient>
  </defs>
  
  <!-- Calculator body -->
  <rect x="4" y="2" width="16" height="20" rx="2" ry="2" fill="url(#calculatorGradient)" stroke="none"/>
  
  <!-- Display screen -->
  <rect x="6" y="4" width="12" height="4" rx="1" ry="1" fill="white" opacity="0.9"/>
  
  <!-- Button grid -->
  <!-- Row 1 -->
  <rect x="6" y="10" width="2" height="2" rx="0.5" fill="white" opacity="0.8"/>
  <rect x="10" y="10" width="2" height="2" rx="0.5" fill="white" opacity="0.8"/>
  <rect x="14" y="10" width="2" height="2" rx="0.5" fill="white" opacity="0.8"/>
  <rect x="18" y="10" width="2" height="2" rx="0.5" fill="white" opacity="0.8"/>
  
  <!-- Row 2 -->
  <rect x="6" y="13" width="2" height="2" rx="0.5" fill="white" opacity="0.8"/>
  <rect x="10" y="13" width="2" height="2" rx="0.5" fill="white" opacity="0.8"/>
  <rect x="14" y="13" width="2" height="2" rx="0.5" fill="white" opacity="0.8"/>
  <rect x="18" y="13" width="2" height="2" rx="0.5" fill="white" opacity="0.8"/>
  
  <!-- Row 3 -->
  <rect x="6" y="16" width="2" height="2" rx="0.5" fill="white" opacity="0.8"/>
  <rect x="10" y="16" width="2" height="2" rx="0.5" fill="white" opacity="0.8"/>
  <rect x="14" y="16" width="2" height="2" rx="0.5" fill="white" opacity="0.8"/>
  <rect x="18" y="16" width="2" height="2" rx="0.5" fill="white" opacity="0.8"/>
  
  <!-- Row 4 -->
  <rect x="6" y="19" width="6" height="2" rx="0.5" fill="white" opacity="0.8"/>
  <rect x="14" y="19" width="2" height="2" rx="0.5" fill="white" opacity="0.8"/>
  <rect x="18" y="19" width="2" height="2" rx="0.5" fill="white" opacity="0.8"/>
</svg>